<?xml version="1.0" encoding="utf-8"?><svg xmlns="http://www.w3.org/2000/svg" xmlns:xlink="http://www.w3.org/1999/xlink" width="1976" height="937" preserveAspectRatio="xMidYMid" viewBox="0 0 1976 937" style="z-index:1;margin-right:-2px;display:block;background-repeat-y:initial;background-repeat-x:initial;background-color:rgb(1, 214, 234);animation-play-state:paused" ><g transform="" style="animation-play-state:paused" ><g transform="translate(1654.9987631154047,-119.53851064579135) scale(100)" opacity="0.72" style="transform:matrix(100, 0, 0, 100, 1655, -119.539);opacity:0.72;animation-play-state:paused" ><path d="M8.536320000000002 0 C8.536320000000002 2.04516 9.389462571713354 1.2410710787034118 8.68997665538943 3.1628928390299205 S7.8538040085119185 3.9203572750301907 6.5392005006853955 5.4870407283194 S6.395000514803784 6.986145806069277 4.623840000000001 8.008725806069277 S3.4964058361322192 8.051495811155874 1.4823164119817718 8.406634118193173 S0.4082466445035293 9.462325268413236 -1.6058427796469181 9.107186961375938 S-2.4969994851962163 8.41524997483318 -4.268159999999999 7.392669974833181 S-5.769530367915987 7.510977575635227 -7.08413387574251 5.944294122346018 S-7.3220309963432415 4.841415150200283 -8.021516912667167 2.9195933898737745 S-9.24768 2.0451600000000014 -9.24768 1.1325141711538996e-15 S-8.721002828991091 -0.9977716295472636 -8.021516912667167 -2.9195933898737723 S-8.398737383569035 -4.377610669056807 -7.084133875742512 -5.944294122346016 S-6.039320514803787 -6.370089974833178 -4.268160000000004 -7.392669974833179 S-3.619932203797366 -8.752048654338639 -1.6058427796469184 -9.107186961375938 S-0.5317730121686794 -8.761772425230474 1.482316411981768 -8.406634118193175 S2.8526794851962185 -9.031305806069277 4.623840000000001 -8.008725806069277 S5.224596992858871 -7.053724181608612 6.539200500685394 -5.4870407283194025 S7.990490739065502 -5.084714599356435 8.689976655389428 -3.162892839029927 S8.536320000000002 -2.0451600000000023 8.536320000000002 -2.090795392899507e-15" fill="#2e9cca" stroke-width="0" transform="matrix(1,0,0,1,0,0)" style="transform:matrix(1, 0, 0, 1, 0, 0);animation-play-state:paused" ></path></g>
<g transform="translate(1788.3985157384857,-237.14621277494962) scale(100)" opacity="0.72" style="transform:matrix(100, 0, 0, 100, 1788.4, -237.146);opacity:0.72;animation-play-state:paused" ><path d="M10.243584000000002 0 C10.243584000000002 2.4541920000000004 11.267355086056028 1.4892852944440946 10.427971986467318 3.795471406835905 S9.424564810214303 4.704428730036229 7.847040600822475 6.58444887398328 S7.674000617764541 8.383374967283135 5.548608000000002 9.610470967283135 S4.195687003358663 9.661794973387048 1.778779694378126 10.087960941831808 S0.4898959734042352 11.354790322095884 -1.927011335576302 10.928624353651125 S-2.9963993822354587 10.098299969799816 -5.121791999999998 8.871203969799817 S-6.923436441499185 9.013173090762274 -8.500960650891013 7.133152946815223 S-8.786437195611889 5.809698180240339 -9.6258202952006 3.503512067848529 S-11.097216000000003 2.4541920000000017 -11.097216000000003 1.3590170053846798e-15 S-10.46520339478931 -1.1973259554567166 -9.625820295200601 -3.503512067848527 S-10.078484860282844 -5.253132802868168 -8.500960650891017 -7.13315294681522 S-7.247184617764544 -7.644107969799814 -5.1217920000000055 -8.871203969799815 S-4.34391864455684 -10.502458385206367 -1.9270113355763026 -10.928624353651125 S-0.6381276146024157 -10.514126910276568 1.7787796943781216 -10.08796094183181 S3.423215382235463 -10.837566967283134 5.548608000000002 -9.610470967283135 S6.269516391430644 -8.464469017930334 7.8470406008224725 -6.584448873983283 S9.588588886878602 -6.101657519227723 10.427971986467314 -3.795471406835913 S10.243584000000002 -2.454192000000003 10.243584000000002 -2.5089544714794087e-15" fill="#1a7ca8" stroke-width="0" transform="matrix(1,0,0,1,0,0)" style="transform:matrix(1, 0, 0, 1, 0, 0);animation-play-state:paused" ></path></g>
<g transform="translate(2108.5579220338795,-519.4046978849294) scale(100)" opacity="0.72" style="transform:matrix(100, 0, 0, 100, 2108.56, -519.405);opacity:0.72;animation-play-state:paused" ><path d="M14.341017600000002 0 C14.341017600000002 3.4358688 15.774297120478439 2.0849994122217317 14.599160781054245 5.313659969570266 S13.194390734300024 6.586200222050721 10.985856841151465 9.218228423576592 S10.743600864870357 11.736724954196387 7.768051200000003 13.454659354196387 S5.8739618047021285 13.526512962741867 2.4902915721293764 14.12314531856453 S0.6858543627659288 15.896706450934238 -2.697815869806823 15.300074095111574 S-4.1949591351296425 14.137619957719743 -7.170508799999998 12.419685557719744 S-9.69281101809886 12.618442327067182 -11.901344911247419 9.98641412554131 S-12.301012073856645 8.133577452336475 -13.47614841328084 4.904916894987941 S-15.536102400000003 3.435868800000002 -15.536102400000003 1.9026238075385515e-15 S-14.651284752705035 -1.6762563376394035 -13.476148413280841 -4.904916894987938 S-14.109878804395981 -7.3543859240154354 -11.901344911247422 -9.986414125541307 S-10.146058464870361 -10.701751157719741 -7.1705088000000075 -12.419685557719742 S-6.081486102379575 -14.70344173928891 -2.6978158698068233 -15.300074095111574 S-0.893378660443382 -14.719777674387194 2.49029157212937 -14.123145318564532 S4.792501535129649 -15.172593754196388 7.768051200000003 -13.454659354196387 S8.777322948002903 -11.850256625102467 10.985856841151461 -9.218228423576596 S13.424024441630044 -8.542320526918811 14.59916078105424 -5.313659969570278 S14.341017600000002 -3.4358688000000037 14.341017600000002 -3.512536260071172e-15" fill="#005e86" stroke-width="0" transform="matrix(1,0,0,1,0,0)" style="transform:matrix(1, 0, 0, 1, 0, 0);animation-play-state:paused" ></path></g></g></svg>